SRRun02_grf
version=1
nRows=34
nColumns=19
inDegrees=no
endheader
time	ground_force_r_vx	ground_force_r_vy	ground_force_r_vz	ground_force_r_px	ground_force_r_py	ground_force_r_pz	ground_force_r_mx	ground_force_r_my	ground_force_r_mz	ground_force_l_vx	ground_force_l_vy	ground_force_l_vz	ground_force_l_px	ground_force_l_py	ground_force_l_pz	ground_force_l_mx	ground_force_l_my	ground_force_l_mz
    142.49700000	   -238.08140172	   1781.99743348	     -5.22243109	      1.01544061	      0.00000000	     -0.33648970	      0.00003168	    -44.72846036	      0.00008542	      0.00000000	      0.00000000	      0.00000000	      0.00000000	      0.00000000	      0.00000000	      0.00000000	      0.00000000	      0.00000000
    142.49800000	   -238.76034327	   1792.09481408	     -1.54975582	      1.00989474	      0.00000000	     -0.33643326	      0.00003108	    -43.85848119	      0.00008038	      0.00000000	      0.00000000	      0.00000000	      0.00000000	      0.00000000	      0.00000000	      0.00000000	      0.00000000	      0.00000000
    142.49900000	   -239.71273861	   1802.27653864	     -0.05768127	      1.00434860	      0.00000000	     -0.33635984	      0.00003042	    -40.03017640	      0.00007562	      0.00000000	      0.00000000	      0.00000000	      0.00000000	      0.00000000	      0.00000000	      0.00000000	      0.00000000	      0.00000000
    142.50000000	   -240.58795852	   1812.45043169	     -0.73605585	      0.99883806	      0.00000000	     -0.33626519	      0.00002978	    -33.69066366	      0.00007146	      0.00000000	      0.00000000	      0.00000000	      0.00000000	      0.00000000	      0.00000000	      0.00000000	      0.00000000	      0.00000000
    142.50100000	   -241.05850682	   1822.50742332	     -3.45425622	      0.99341136	      0.00000000	     -0.33615108	      0.00002924	    -25.51675481	      0.00006813	      0.00000000	      0.00000000	      0.00000000	      0.00000000	      0.00000000	      0.00000000	      0.00000000	      0.00000000	      0.00000000
    142.50200000	   -240.84018471	   1832.33401540	     -7.97740518	      0.98812248	      0.00000000	     -0.33602414	      0.00002887	    -16.34832154	      0.00006579	      0.00000000	      0.00000000	      0.00000000	      0.00000000	      0.00000000	      0.00000000	      0.00000000	      0.00000000	      0.00000000
    142.50300000	   -239.70625029	   1841.82362960	    -13.98727761	      0.98302481	      0.00000000	     -0.33589411	      0.00002873	     -7.10609102	      0.00006452	      0.00000000	      0.00000000	      0.00000000	      0.00000000	      0.00000000	      0.00000000	      0.00000000	      0.00000000	      0.00000000
    142.50400000	   -237.49595149	   1850.88632671	    -21.10648754	      0.97816561	      0.00000000	     -0.33577194	      0.00002883	      1.29779830	      0.00006431	      0.00000000	      0.00000000	      0.00000000	      0.00000000	      0.00000000	      0.00000000	      0.00000000	      0.00000000	      0.00000000
    142.50500000	   -234.11812621	   1859.45632607	    -28.92423701	      0.97358136	      0.00000000	     -0.33566797	      0.00002919	      8.04741748	      0.00006510	      0.00000000	      0.00000000	      0.00000000	      0.00000000	      0.00000000	      0.00000000	      0.00000000	      0.00000000	      0.00000000
    142.50600000	   -229.55067709	   1867.49629113	    -37.02199790	      0.96929477	      0.00000000	     -0.33559058	      0.00002979	     12.50003282	      0.00006675	      0.00000000	      0.00000000	      0.00000000	      0.00000000	      0.00000000	      0.00000000	      0.00000000	      0.00000000	      0.00000000
    142.50700000	   -223.83673501	   1874.99723860	    -44.99774398	      0.96531402	      0.00000000	     -0.33554526	      0.00003057	     14.24483720	      0.00006908	      0.00000000	      0.00000000	      0.00000000	      0.00000000	      0.00000000	      0.00000000	      0.00000000	      0.00000000	      0.00000000
    142.50800000	   -217.07826851	   1881.97362180	    -52.48747029	      0.96163457	      0.00000000	     -0.33553423	      0.00003151	     13.13781700	      0.00007190	      0.00000000	      0.00000000	      0.00000000	      0.00000000	      0.00000000	      0.00000000	      0.00000000	      0.00000000	      0.00000000
    142.50900000	   -209.42779995	   1888.45439854	    -59.18272257	      0.95824317	      0.00000000	     -0.33555639	      0.00003252	      9.30978461	      0.00007500	      0.00000000	      0.00000000	      0.00000000	      0.00000000	      0.00000000	      0.00000000	      0.00000000	      0.00000000	      0.00000000
    142.51000000	   -201.07876553	   1894.47205050	    -64.84293218	      0.95512312	      0.00000000	     -0.33560747	      0.00003355	      3.14753260	      0.00007822	      0.00000000	      0.00000000	      0.00000000	      0.00000000	      0.00000000	      0.00000000	      0.00000000	      0.00000000	      0.00000000
    142.51100000	   -192.25491165	   1900.05202963	    -69.30179604	      0.95225962	      0.00000000	     -0.33568026	      0.00003453	     -4.74917160	      0.00008137	      0.00000000	      0.00000000	      0.00000000	      0.00000000	      0.00000000	      0.00000000	      0.00000000	      0.00000000	      0.00000000
    142.51200000	   -183.19896095	   1905.20487713	    -72.46781294	      0.94964386	      0.00000000	     -0.33576497	      0.00003540	    -13.62979429	      0.00008435	      0.00000000	      0.00000000	      0.00000000	      0.00000000	      0.00000000	      0.00000000	      0.00000000	      0.00000000	      0.00000000
    142.51300000	   -174.16068429	   1909.92253697	    -74.32000633	      0.94727523	      0.00000000	     -0.33584969	      0.00003610	    -22.66790922	      0.00008707	      0.00000000	      0.00000000	      0.00000000	      0.00000000	      0.00000000	      0.00000000	      0.00000000	      0.00000000	      0.00000000
    142.51400000	   -165.38453904	   1914.17942214	    -74.90030595	      0.94516111	      0.00000000	     -0.33592123	      0.00003660	    -31.04123135	      0.00008951	      0.00000000	      0.00000000	      0.00000000	      0.00000000	      0.00000000	      0.00000000	      0.00000000	      0.00000000	      0.00000000
    142.51500000	   -157.09711363	   1917.93774450	    -74.30388147	      0.94331466	      0.00000000	     -0.33596606	      0.00003688	    -38.00897756	      0.00009168	      0.00000000	      0.00000000	      0.00000000	      0.00000000	      0.00000000	      0.00000000	      0.00000000	      0.00000000	      0.00000000
    142.51600000	   -149.49467813	   1921.15569200	    -72.66830873	      0.94175104	      0.00000000	     -0.33597137	      0.00003694	    -42.97916419	      0.00009363	      0.00000000	      0.00000000	      0.00000000	      0.00000000	      0.00000000	      0.00000000	      0.00000000	      0.00000000	      0.00000000
    142.51700000	   -142.73123432	   1923.79647153	    -70.16230549	      0.94048321	      0.00000000	     -0.33592615	      0.00003680	    -45.55968480	      0.00009542	      0.00000000	      0.00000000	      0.00000000	      0.00000000	      0.00000000	      0.00000000	      0.00000000	      0.00000000	      0.00000000
    142.51800000	   -136.90762921	   1925.83614909	    -66.97497005	      0.93951819	      0.00000000	     -0.33582222	      0.00003648	    -45.58886821	      0.00009710	      0.00000000	      0.00000000	      0.00000000	      0.00000000	      0.00000000	      0.00000000	      0.00000000	      0.00000000	      0.00000000
    142.51900000	   -132.06249236	   1927.26860503	    -63.30658612	      0.93885480	      0.00000000	     -0.33565512	      0.00003602	    -43.14343859	      0.00009870	      0.00000000	      0.00000000	      0.00000000	      0.00000000	      0.00000000	      0.00000000	      0.00000000	      0.00000000	      0.00000000
    142.52000000	   -128.16594454	   1928.10671197	    -59.36173088	      0.93848309	      0.00000000	     -0.33542493	      0.00003548	    -38.52410874	      0.00010022	      0.00000000	      0.00000000	      0.00000000	      0.00000000	      0.00000000	      0.00000000	      0.00000000	      0.00000000	      0.00000000
    142.52100000	   -125.11718985	   1928.37982104	    -55.34469599	      0.93838568	      0.00000000	     -0.33513687	      0.00003491	    -32.22111316	      0.00010163	      0.00000000	      0.00000000	      0.00000000	      0.00000000	      0.00000000	      0.00000000	      0.00000000	      0.00000000	      0.00000000
    142.52200000	   -122.74714747	   1928.12847266	    -51.45650988	      0.93854047	      0.00000000	     -0.33480152	      0.00003436	    -24.86360116	      0.00010286	      0.00000000	      0.00000000	      0.00000000	      0.00000000	      0.00000000	      0.00000000	      0.00000000	      0.00000000	      0.00000000
    142.52300000	   -120.82701899	   1927.39770522	    -47.89248007	      0.93892398	      0.00000000	     -0.33443457	      0.00003387	    -17.15797383	      0.00010383	      0.00000000	      0.00000000	      0.00000000	      0.00000000	      0.00000000	      0.00000000	      0.00000000	      0.00000000	      0.00000000
    142.52400000	   -119.08302802	   1926.23043529	    -44.83922097	      0.93951470	      0.00000000	     -0.33405604	      0.00003347	     -9.82106206	      0.00010447	      0.00000000	      0.00000000	      0.00000000	      0.00000000	      0.00000000	      0.00000000	      0.00000000	      0.00000000	      0.00000000
    142.52500000	   -117.21666459	   1924.66222890	    -42.47042965	      0.94029560	      0.00000000	     -0.33368886	      0.00003319	     -3.51442417	      0.00010469	      0.00000000	      0.00000000	      0.00000000	      0.00000000	      0.00000000	      0.00000000	      0.00000000	      0.00000000	      0.00000000
    142.52600000	   -114.92892293	   1922.71833224	    -40.94100541	      0.94125565	      0.00000000	     -0.33335699	      0.00003302	      1.21421823	      0.00010448	      0.00000000	      0.00000000	      0.00000000	      0.00000000	      0.00000000	      0.00000000	      0.00000000	      0.00000000	      0.00000000
    142.52700000	   -111.94643051	   1920.41309542	    -40.37938080	      0.94239001	      0.00000000	     -0.33308308	      0.00003296	      3.97731602	      0.00010382	      0.00000000	      0.00000000	      0.00000000	      0.00000000	      0.00000000	      0.00000000	      0.00000000	      0.00000000	      0.00000000
    142.52800000	   -108.04699130	   1917.75125621	    -40.87828867	      0.94369934	      0.00000000	     -0.33288607	      0.00003296	      4.57789455	      0.00010276	      0.00000000	      0.00000000	      0.00000000	      0.00000000	      0.00000000	      0.00000000	      0.00000000	      0.00000000	      0.00000000
    142.52900000	   -103.08184735	   1914.73031854	    -42.48481273	      0.94518858	      0.00000000	     -0.33277893	      0.00003299	      3.02192641	      0.00010140	      0.00000000	      0.00000000	      0.00000000	      0.00000000	      0.00000000	      0.00000000	      0.00000000	      0.00000000	      0.00000000
    142.53000000	    -96.99203247	   1911.34342322	    -45.19128745	      0.94686540	      0.00000000	     -0.33276687	      0.00003298	     -0.48776266	      0.00009986	      0.00000000	      0.00000000	      0.00000000	      0.00000000	      0.00000000	      0.00000000	      0.00000000	      0.00000000	      0.00000000
